<?xml version="1.0" encoding="utf-8"?>
<!-- Generator: Adobe Illustrator 27.5.0, SVG Export Plug-In . SVG Version: 6.00 Build 0)  -->
<svg version="1.1" id="Layer_1" xmlns="http://www.w3.org/2000/svg" xmlns:xlink="http://www.w3.org/1999/xlink" x="0px" y="0px"
	 viewBox="0 0 3629.786 2000" style="enable-background:new 0 0 3629.786 2000;" xml:space="preserve">
<rect style="fill:transparent;" width="3629.786" height="2000"/>
<g>
	<defs>
		<path id="SVGID_1_" d="M3418.911,448.992v1080.471c0,173.259-186.996,290.121-412.931,313.709
			c-58.203,6.077-116.775,10.253-178.719,12.759c-14.536,0.597-29.263,1.094-44.219,1.502c-29.216,0.796-59.284,1.253-90.484,1.393
			c-90.498,0.408-416.418,2.307-467.172,0c-97.017-4.416-188.623-22.118-309.789-28.403c-41.454-2.147-88.452-3.55-139.554-4.335
			h-0.013c-24.414-0.378-49.765-0.618-75.876-0.737c-0.011,0-0.011,0-0.024,0c-138.939-0.646-299.717,2.109-458.102,5.629
			c-8.374,0.179-16.736,0.368-25.086,0.557c-114.404,2.614-226.86,5.559-328.186,7.846h-0.012
			c-13.85,0.308-27.495,0.616-40.899,0.905c-15.436,0.318-30.575,0.636-45.374,0.914c-50.477,0.985-96.958,1.691-138.024,1.969
			c-228.052,1.541-412.944-140.45-412.944-313.709V448.992c0-173.258,185.276-323.901,412.944-313.708
			c211.423,9.467,522.389,46.929,846.557,23.987c385.557-27.289,1117.36-50.47,1494.976-23.987
			C3233.068,151.205,3418.911,275.734,3418.911,448.992z"/>
	</defs>
	<use xlink:href="#SVGID_1_"  style="overflow:visible;fill:#DEEBE9;"/>
	<clipPath id="SVGID_00000011711018244259232830000007977942390098965161_">
		<use xlink:href="#SVGID_1_"  style="overflow:visible;"/>
	</clipPath>
	<g style="clip-path:url(#SVGID_00000011711018244259232830000007977942390098965161_);">
		<g style="opacity:0.6;">
			<path style="fill:#B2C9C6;" d="M1470.522,1121.854c0,0,212.946-754.025,415.379-688.556
				c202.432,65.469-254.644,473.648-309.681,695.113L1470.522,1121.854z"/>
		</g>
		<g>
			<g>
				<g>
					<path style="fill:#CFD3A3;" d="M3298.398,1173.662c-83.567,106.347,60.979,246.455-78.721,313.945
						c-139.764,67.425-136.292,52.032-150.362,148.646c0,0,18.608,66.704-20.831,113.013
						c-155.611,182.718-627.514,119.612-560.441-186.059c4.843-22.072,21.393-42.729,40.629-64.498
						c104.413-118.004,187.352-93.902,164.793-313.424c-22.558-219.585,273.451-123.116,347.956-196.835
						c74.506-73.719,125.4-156.515,258.614-123.195C3433.318,898.64,3382.03,1067.378,3298.398,1173.662z"/>
				</g>
			</g>
			<g style="opacity:0.5;">
				<g>
					<g>
						<path style="fill:#C4C695;" d="M2708.264,1711.062l-8.529-2.517c1.106-3.76,116.955-381.509,634.769-831.045l5.835,6.719
							C2824.469,1332.07,2709.37,1707.321,2708.264,1711.062z"/>
					</g>
				</g>
				<g>
					<g>
						<path style="fill:#C4C695;" d="M3070.34,1172.097c-14.031-0.074-22.245-0.873-22.619-0.912l0.934-8.845
							c1.728,0.184,174.715,16.828,310.644-102.793l5.872,6.675C3255.643,1162.612,3122.62,1172.375,3070.34,1172.097z"/>
					</g>
				</g>
				<g>
					<g>
						<path style="fill:#C4C695;" d="M3270.002,1273.85c-61.199-9.156-99.644-37.109-121.117-58.945
							c-23.372-23.77-32.107-45.206-32.472-46.106l8.261-3.311c0.333,0.827,34.594,82.803,146.648,99.562L3270.002,1273.85z"/>
					</g>
				</g>
			</g>
		</g>
		<g>
			<g>
				<path style="fill:#B2C9C6;" d="M1009.801,762.667c-20.369,8.62-29.166,4.713-32.545-3.27c-3.379-7.983-0.059-17.02,20.309-25.64
					c37.104-15.704,61.156-8.838,61.156-8.838S1047.445,746.735,1009.801,762.667z"/>
			</g>
			<g>
				<g>
					<g>
						<path style="fill:#B2C9C6;" d="M932.941,1273.33l-4.09-0.904c0.138-0.628,13.78-64.145,4.546-161.019
							c-8.525-89.384-38.825-226.265-134.788-370.76l3.486-2.316c96.494,145.292,126.936,282.961,135.484,372.866
							C946.85,1208.674,933.08,1272.693,932.941,1273.33z"/>
					</g>
				</g>
				<g>
					<g>
						<path style="fill:#B2C9C6;" d="M891.857,916.646l-3.201-2.696c97.946-116.266,69.184-276.813,68.882-278.422l4.114-0.773
							C961.957,636.382,991.107,798.834,891.857,916.646z"/>
					</g>
				</g>
				<g>
					<g>
						<path style="fill:#B2C9C6;" d="M838.191,841.102c-42.16-5.533-71.251-30.82-71.582-31.113l2.769-3.137
							c0.37,0.325,37.66,32.669,88.567,31.067l0.133,4.185C851.192,842.319,844.539,841.934,838.191,841.102z"/>
					</g>
				</g>
				<g>
					<g>
						<path style="fill:#B2C9C6;" d="M798.873,717.142c19.361,22.689,19.773,34,13.181,39.627
							c-6.595,5.627-17.699,3.44-37.061-19.25c-35.269-41.334-40.374-71.498-40.374-71.498S763.091,675.206,798.873,717.142z"/>
					</g>
				</g>
				<g>
					<g>
						<path style="fill:#B2C9C6;" d="M779.501,798.03c25.303,15.796,29.105,26.456,24.514,33.81
							c-4.591,7.353-15.838,8.616-41.14-7.18c-46.088-28.777-60.051-55.998-60.051-55.998S732.74,768.835,779.501,798.03z"/>
					</g>
				</g>
				<g>
					<g>
						<path style="fill:#B2C9C6;" d="M889.317,780.556c2.2,22.009-4.139,29.252-12.764,30.116
							c-8.627,0.861-16.273-4.986-18.473-26.995c-4.008-40.09,9.674-61.028,9.674-61.028S885.252,739.881,889.317,780.556z"/>
					</g>
				</g>
				<g>
					<g>
						<path style="fill:#B2C9C6;" d="M972.607,619.09c3.119,29.664-2.942,39.222-11.565,40.128
							c-8.62,0.906-16.538-7.183-19.655-36.847c-5.681-54.037,7.184-81.794,7.184-81.794S966.845,564.265,972.607,619.09z"/>
					</g>
				</g>
			</g>
		</g>
		<g>
			<path style="fill:#B2C9C6;" d="M1050.287,1372.573c0,0-341.328-724.527-534.447-624.521
				c-193.118,100.004,336.292,434.819,428.973,648.88L1050.287,1372.573z"/>
		</g>
		<g>
			<g>
				<g>
					<path style="fill:#CFD3A3;" d="M1173.841,1761.601c-27.626,36.876-68.389,66.113-115.241,86.48
						c-6.921,0.179-13.832,0.368-20.734,0.557c-94.555,2.615-187.499,5.559-271.244,7.846h-0.01
						c-11.277-4.913-22.037-10.571-32.181-17.006v-0.01c-7.559-4.783-14.778-10.015-21.591-15.673
						c-6.086-5.052-11.187-10.661-15.455-16.558c-26.113-36.02-21.41-83.039-21.41-83.039
						c-28.105-85.725-22.506-72.26-160.429-111.512c-98.872-28.203-70.569-113.549-80.921-190.403v-0.02
						c-0.198-1.422-0.397-2.834-0.626-4.255v-0.01c-4.445-28.761-14.798-56.14-39.839-78.663
						c-26.572-23.869-51.543-52.798-70.956-83.149c0-0.011-0.01-0.011-0.01-0.011c-1.601-2.516-3.172-5.042-4.704-7.577
						c-37.512-62.116-50.688-128.855-6.235-169.659l0.01-0.011c1.054-0.964,2.128-1.9,3.242-2.825
						c7.797-6.543,17.184-12.35,28.322-17.294c116.007-51.434,175.446,15.893,254.956,71.205
						c43.945,30.571,141.285,3.093,221.957,6.772h0.051c1.152,0.04,2.297,0.1,3.439,0.169c55.662,3.183,102.8,22.008,117.987,86.321
						c2.197,9.289,3.728,19.523,4.524,30.799v0.04c0.13,1.82,0.259,3.61,0.397,5.39c3.293,43.121,9.279,75.222,17.801,99.984
						c6.147,17.862,13.596,31.914,22.317,43.539c11.556,15.424,25.33,26.592,41.182,36.726
						c14.975,9.577,31.813,18.239,50.391,28.711c8.76,4.942,17.92,10.293,27.447,16.338c12.709,8.057,26.095,17.345,40.127,28.553
						c7.29,5.826,14.25,11.586,20.576,17.443c11.874,10.959,21.471,22.236,26.633,34.845c1.562,3.81,3.002,7.589,4.356,11.338
						C1224.163,1650.051,1210.607,1712.573,1173.841,1761.601z"/>
				</g>
			</g>
			<g>
				<g>
					<g>
						<path style="fill:#C4C695;" d="M1016.531,1735.132l7.366-3.643c-1.602-3.248-166.895-328.809-709.511-656.067l-4.248,7.042
							C850.716,1408.496,1014.931,1731.902,1016.531,1735.132z"/>
					</g>
				</g>
				<g>
					<g>
						<path style="fill:#C4C695;" d="M795.765,1327.135c109.863-23.815,152.258-68.347,154.008-70.229l-6.017-5.6
							c-0.413,0.444-42.678,44.586-149.737,67.794L795.765,1327.135z"/>
					</g>
				</g>
				<g>
					<g>
						<path style="fill:#C4C695;" d="M739.186,1396.947c40.913-24.27,68.574-77.134,79.994-152.875
							c8.555-56.721,5.061-107.033,5.024-107.534l-8.195,0.591c0.14,1.963,13.052,196.946-81.023,252.751L739.186,1396.947z"/>
					</g>
				</g>
				<g>
					<g>
						<path style="fill:#C4C695;" d="M601.539,1301.792c12.763-2.29,20.114-4.318,20.449-4.412l-2.251-7.905
							c-1.544,0.442-156.398,42.989-299.093-44.39l-4.289,7.008C431.334,1322.502,553.986,1310.324,601.539,1301.792z"/>
					</g>
				</g>
				<g>
					<g>
						<path style="fill:#C4C695;" d="M435.878,1426.048c54.268-18.027,84.842-49.565,100.933-72.844
							c17.513-25.343,22.072-46.24,22.26-47.118l-8.045-1.706c-0.172,0.805-18.382,80.864-117.744,113.867L435.878,1426.048z"/>
					</g>
				</g>
			</g>
		</g>
		<g>
			<path style="fill:#9BBCB6;" d="M1467.881,1826.087c-20.178-0.378-39.564,13.927-61.145,13.808c-0.01,0-23.656,3.333-23.667,3.333
				c-114.832-0.646-214.299,1.89-345.203,5.41c-6.921,0.179-18.229-3.932-25.13-3.743c-11.556-25.469-56.593-124.671-91.55-224.447
				v-0.01c-2.894-8.245-5.758-16.578-8.593-25.001v-0.01c-5.558-16.499-10.959-33.275-16.09-50.112
				c-4.684-15.354-9.13-30.758-13.257-46.074c-2.854-10.571-5.548-21.102-8.055-31.536c-3.67-15.275-6.951-30.341-9.725-45.049
				c-1.899-10.075-3.57-19.99-4.972-29.675c-2.248-15.515-3.81-30.461-4.565-44.652c-1.432-26.841,0.04-50.958,5.301-70.956v-0.011
				c1.015-3.869,2.169-7.578,3.471-11.129c0.636-1.73,1.312-3.431,2.018-5.082c10.462-24.433,25.27-42.314,43.43-54.974
				c87.136-60.713,251.582-0.875,384.903,34.846c33.732,9.031,59.718,40.505,79.717,84.63c6.275,13.814,11.953,28.87,17.095,44.861
				c4.663,14.501,8.89,29.765,12.719,45.578c0.528,2.177,1.045,4.366,1.553,6.563c3.419,14.639,6.504,29.715,9.288,45.049
				c1.531,8.413,2.973,16.907,4.315,25.44c1.422,8.95,2.755,17.94,3.988,26.97c2.059,15.007,3.88,30.083,5.479,45.07
				c8.285,77.161,10.91,151.985,11.586,203.887c0.269,20.257,0.239,37.024,0.129,49.077
				C1449.583,1820.667,1458.652,1823.323,1467.881,1826.087z"/>
		</g>
		<path style="fill:#9BBCB6;" d="M2957.329,1317.686c-1.014-3.869-2.168-7.578-3.471-11.128c-0.636-1.73-1.312-3.431-2.018-5.083
			c-10.462-24.433-25.27-42.313-43.43-54.974c-87.136-60.712-251.582-0.875-384.903,34.847
			c-33.732,9.031-59.718,40.505-79.717,84.629c-6.274,13.814-11.953,28.87-17.095,44.861c-4.663,14.501-8.89,29.765-12.719,45.578
			c-0.528,2.177-1.045,4.366-1.553,6.563c-3.419,14.639-6.504,29.715-9.288,45.049c-1.531,8.413-2.973,16.907-4.315,25.439
			c-1.423,8.95-2.755,17.94-3.988,26.97c-2.059,15.007-3.88,30.083-5.479,45.07c-8.285,77.161-10.91,151.985-11.586,203.887
			c-0.085,6.387-0.14,24.835-0.173,43.043c118.497,0.108,285.644-0.839,346.463-1.113c31.2-0.14,61.268-0.597,90.484-1.393
			c2.712-0.074,5.408-0.154,8.104-0.234h0c16.789-38.208,46.761-109.106,74.727-188.927v-0.009
			c2.894-8.245,5.758-16.578,8.593-25.001v-0.01c5.558-16.499,10.959-33.275,16.09-50.111c4.684-15.354,9.13-30.759,13.257-46.075
			c2.854-10.571,5.548-21.103,8.056-31.536c3.669-15.275,6.95-30.341,9.725-45.049c1.899-10.074,3.57-19.99,4.972-29.675
			c2.248-15.515,3.81-30.461,4.565-44.652c1.432-26.84-0.04-50.958-5.301-70.956V1317.686z"/>
		<g>
			<path style="fill:#6F4975;" d="M2489.479,1545.22c-69.323,4.054-249.112,69.029-316.171,160.896
				c-27.658,37.892-43.532,85.306-53.97,143.732c35.766,3.963,70.547,7.361,106.048,8.977c9.747,0.443,29.65,0.73,56.078,0.904
				c4.055-7.538,8.308-14.471,12.752-21.032c40.056-59.146,145.892-74.265,205.419-78.013c3.274-0.208,6.537-0.392,9.782-0.55
				c98.321-4.827,231.236-28.236,146.381-204.697C2655.798,1555.437,2602.528,1538.607,2489.479,1545.22z"/>
			<path style="fill:#6F4975;" d="M2819.594,1565.503c0,0-50.794,13.652-163.843,20.265
				c-69.327,4.054-131.111,15.884-183.644,35.165c-73.607,27.018-129.911,68.745-167.35,124.024
				c-23.277,34.37-36.289,70.836-43.407,114.603c48.07,0.508,130.181,0.447,211.5,0.205c5.571-7.543,11.093-14.193,16.435-20.095
				C2576.412,1743.43,2911.091,1791.385,2819.594,1565.503z"/>
			<path style="fill:#020202;" d="M2448.259,1649.378c-73.557,22.432-144.778,75.875-169.341,127.079
				c-8.75,18.24-14.724,51.716-18.653,83.092c0.432,0.005,0.86,0.01,1.298,0.014c3.911-31.216,9.846-64.455,18.523-82.542
				c24.423-50.909,95.306-104.064,168.547-126.4L2448.259,1649.378z"/>
			<g>
				<path style="fill:#6F4975;" d="M2820.266,1171.74c0,0-20.56-58.327-156.314-59.154
					c-195.77-1.189-175.479,176.619-193.595,481.998c0,0,229.917,129.511,364.658,32.175
					C2835.015,1626.759,2862.776,1296.216,2820.266,1171.74z"/>
			</g>
			<g>
				<g>
					<path style="fill:#F7B686;" d="M2128.34,1114.827L2128.34,1114.827c-3.31,3.212-8.649,3.131-11.858-0.178l-49.852-51.39
						c-3.213-3.307-3.129-8.645,0.181-11.857l0,0c3.31-3.212,8.646-3.132,11.857,0.181l49.851,51.384
						C2131.729,1106.279,2131.65,1111.615,2128.34,1114.827z"/>
				</g>
				<g>
					<path style="fill:#F7B686;" d="M2143.747,1099.877L2143.747,1099.877c-3.31,3.212-8.646,3.132-11.858-0.178l-55.751-57.472
						c-3.212-3.31-3.129-8.645,0.181-11.857l0,0c3.31-3.212,8.646-3.132,11.857,0.181l55.752,57.469
						C2147.14,1091.33,2147.058,1096.666,2143.747,1099.877z"/>
				</g>
				<g>
					<path style="fill:#F7B686;" d="M2176.908,1125.768l-2.97,0.295c-5.549,0.547-10.538-3.548-11.085-9.097l-5.323-54.069
						c-0.544-5.548,3.548-10.538,9.1-11.084l2.969-0.29c5.55-0.55,10.536,3.545,11.086,9.095l5.32,54.069
						C2186.552,1120.235,2182.457,1125.224,2176.908,1125.768z"/>
				</g>
				<g>
					<path style="fill:#F7B686;" d="M2159.158,1084.932L2159.158,1084.932c-3.31,3.212-8.646,3.129-11.857-0.181l-44.692-46.068
						c-3.212-3.31-3.131-8.649,0.182-11.86l0,0c3.31-3.211,8.645-3.129,11.857,0.181l44.689,46.067
						C2162.549,1076.378,2162.468,1081.72,2159.158,1084.932z"/>
				</g>
				<g>
					<path style="fill:#F7B686;" d="M2146.274,1154.24c0,0-46.197-12.766-59.311-44.191c-4.539-10.879,42.033-53.64,54.452-49.152
						c12.42,4.485,39.57,38.541,39.57,38.541L2146.274,1154.24z"/>
				</g>
				<g>
					<g>
						<path style="fill:#FFFFFF;" d="M2134.736,1161.562c12.22-42.333,63-69.711,63-69.711c7,8.042,68.404,113.293,191.931,107.476
							c43.99-2.07,83.499-33.553,90.351-43.022c0.913-1.259,117.11,30.161,117.11,30.161
							c-12.407,17.15-36.944,75.327-91.308,103.909C2393.362,1349.503,2205.196,1294.228,2134.736,1161.562z"/>
					</g>
				</g>
				<g>
					<path style="fill:#F7B686;" d="M2113.076,1129.719L2113.076,1129.719c-3.302,3.205-8.626,3.125-11.833-0.178l-44.596-45.975
						c-3.204-3.305-3.125-8.626,0.181-11.833l0,0c3.303-3.208,8.629-3.124,11.833,0.181l44.6,45.969
						C2116.465,1121.189,2116.381,1126.515,2113.076,1129.719z"/>
				</g>
			</g>
			<g>
				<path style="fill:#FFFFFF;" d="M2897.934,1226.94l-56.587,94.656c0,0-269.491-74.869-332.576-83.986
					c-34.191-4.942-63.268-34.755-63.268-34.755s14.673-93.484,238.661-96.941C2878.28,1102.926,2897.934,1226.94,2897.934,1226.94z
					"/>
			</g>
			<g>
				<path style="fill:#F7B686;" d="M2711.092,1107.037c-20.804,23.704-62.316,39.503-82.624,32.624
					c-25.315-8.56-15.31-23.571-12.05-27.094c8-8.625,10.469-14.946,10.631-25.116l0.036-2.469l0.198-12.51l0.359-23.535
					l0.363-23.801l1.218-78.876l29.232,80.09l4.97,13.631l7.015,19.227l10.073,27.554
					C2686.043,1101.902,2710.93,1107.005,2711.092,1107.037z"/>
			</g>
			<g>
				<path style="fill:#56335B;" d="M2670.439,1059.208c0,0-15.442,21.789-43.355,25.775l0.198-12.51l0.359-23.535L2670.439,1059.208
					z"/>
			</g>
			<g>
				<path style="fill:#E28569;" d="M2582.259,908.547c0,0-38.895,36.167-13.347,66.848
					C2594.46,1006.078,2582.259,908.547,2582.259,908.547z"/>
			</g>
			<g>
				<path style="fill:#E28569;" d="M2693.324,1044.28c0,0,70.944-28.664,70.944-93.617c0-28.804-8.981-41.544-24.905-52.645
					C2661.088,843.432,2693.324,1044.28,2693.324,1044.28z"/>
			</g>
			<g>
				<path style="fill:#F7B686;" d="M2567.726,967.363c6.303-48.009,45.939-82.394,88.532-76.806
					c42.586,5.596,72.004,49.044,65.701,97.053c-6.303,48.009-45.939,82.394-88.528,76.802
					C2590.838,1058.82,2561.423,1015.368,2567.726,967.363z"/>
			</g>
			<g>
				<g>
					<path style="fill:#060633;" d="M2641.545,967.492c-0.403-0.248-0.687-0.686-0.73-1.2c-0.068-0.866,0.572-1.628,1.438-1.7
						c0.51-0.039,12.258-2.142,18.174,10.343c0.374,0.787,0.072,1.729-0.708,2.113c-0.78,0.391-1.563-0.025-2.117-0.708
						c-5.488-6.778-14.659-8.64-15.087-8.603C2642.163,967.765,2641.825,967.672,2641.545,967.492z"/>
				</g>
			</g>
			<g>
				<path style="fill:#060633;" d="M2648.381,987.722c-0.989,3.629-3.924,5.991-6.559,5.272c-2.635-0.719-3.968-4.244-2.979-7.874
					c0.992-3.63,3.931-5.987,6.562-5.268C2648.039,980.566,2649.372,984.092,2648.381,987.722z"/>
			</g>
			<g>
				<g>
					<path style="fill:#060633;" d="M2583.219,962.817c-0.367-0.065-0.69-0.341-0.855-0.787c-0.277-0.751-0.007-1.707,0.618-2.135
						c0.363-0.248,8.453-7.008,16.071,1.826c0.481,0.561,0.503,1.535,0.032,2.21c-0.471,0.672-1.161,0.622-1.743,0.23
						c-5.811-3.849-13.045-1.736-13.351-1.531C2583.74,962.802,2583.47,962.86,2583.219,962.817z"/>
				</g>
			</g>
			<g>
				<path style="fill:#060633;" d="M2597.594,978.974c0.467,3.734-1.351,7.033-4.057,7.371c-2.707,0.341-5.283-2.411-5.747-6.142
					c-0.474-3.737,1.344-7.036,4.058-7.374C2594.553,972.491,2597.126,975.24,2597.594,978.974z"/>
			</g>
			<g>
				<path style="fill:#FFFFFF;" d="M2603.819,1020.255c0,0,11.691,1.124,24.882-0.859c0,0-2.972,8.258-16,7.797
					C2605.125,1026.925,2603.819,1020.255,2603.819,1020.255z"/>
			</g>
			<g>
				<path style="fill:#E28569;" d="M2560.219,923.368c6.548,8.779,14.979,18.457,36.376,14.339
					c21.397-4.115,26.669-14.752,26.669-14.752s7.96,15.83,27.435,14.497c19.474-1.326,22.004-9.261,22.004-9.261
					s2.537,17.807,19.755,21.922c17.218,4.115-10.49,25.282,19.14,29.476c21.408,3.029,18.145-44.505,25.785-71.041
					c10.44-36.254-27.708-63.775-44.925-51.43c-14.407,10.329-25.505-6.537-56.85-9.052c-37.583-3.019-24.373,28.214-39.517,25.196
					C2561.541,866.375,2541.287,897.978,2560.219,923.368z"/>
			</g>
			<g>
				<path style="fill:#F7B686;" d="M2722.588,988.153c-7.888,5.016-17.911,3.371-22.393-3.673
					c-4.485-7.047-1.729-16.826,6.16-21.843c7.885-5.017,17.908-3.371,22.396,3.673
					C2733.229,973.361,2730.473,983.14,2722.588,988.153z"/>
			</g>
			<g>
				<path style="fill:#E28569;" d="M2767.869,907.703c0.331,0,0.661-0.097,0.949-0.298c0.744-0.529,0.92-1.553,0.395-2.297
					c-8.064-11.435-21.131-9.002-21.692-8.898c-0.887,0.18-1.466,1.042-1.29,1.933c0.169,0.891,1.046,1.474,1.927,1.301
					c0.471-0.09,11.55-2.095,18.364,7.561C2766.845,907.458,2767.355,907.703,2767.869,907.703z"/>
			</g>
			<g>
				<path style="fill:#E28569;" d="M2743.403,893.188c0.733,0,1.405-0.496,1.592-1.243c2.548-9.926-2.548-19.151-2.767-19.539
					c-0.442-0.794-1.452-1.064-2.235-0.629c-0.794,0.446-1.078,1.448-0.633,2.243c0.047,0.083,4.658,8.485,2.451,17.114
					c-0.227,0.881,0.302,1.775,1.182,2.002C2743.133,893.17,2743.267,893.188,2743.403,893.188z"/>
			</g>
			<g>
				<path style="fill:#E28569;" d="M2598.025,871.112c0.582,0,1.146-0.313,1.445-0.856c0.438-0.798,0.147-1.797-0.647-2.235
					c-0.927-0.507-22.827-12.337-44.124-5.053c-0.859,0.295-1.319,1.229-1.024,2.088c0.291,0.859,1.226,1.326,2.088,1.024
					c19.92-6.814,41.256,4.708,41.472,4.826C2597.486,871.043,2597.755,871.112,2598.025,871.112z"/>
			</g>
			<g>
				<path style="fill:#E28569;" d="M2678.931,858.975c0.305,0,0.611-0.086,0.888-0.259c0.765-0.489,0.988-1.506,0.5-2.271
					c-0.176-0.28-4.424-6.843-12.1-11.177c-0.798-0.442-1.793-0.169-2.242,0.622c-0.449,0.794-0.165,1.797,0.622,2.246
					c6.939,3.917,10.907,10.02,10.95,10.084C2677.86,858.709,2678.392,858.975,2678.931,858.975z"/>
			</g>
			<g>
				<path style="fill:#E28569;" d="M2643.03,1125.262l-17.778,12.894l12.039,27.92l-21.031,117.62l13.39,99.022l35.679-90.048
					l-5.563-121.498c0,0,27.381-33.771,22.845-38.227c-4.535-4.464-24.93-15.859-24.93-15.859L2643.03,1125.262z"/>
			</g>
			<g>
				<path style="fill:#FFFFFF;" d="M2737.966,1109.37l-57.453-22.608c0,0-18.051,31.686-32.387,28.818
					c-14.335-2.868-21.196-25.318-21.196-25.318l-34.238,19.108c0,0,13.606,52.781,58.546,15.892
					C2651.238,1125.262,2703.253,1175.387,2737.966,1109.37z"/>
			</g>
			<g>
				<path style="fill:#56335B;" d="M2689.73,1144.6c6.512,0,12.948-1.535,19.299-4.607c0.776-0.377,1.103-1.315,0.726-2.095
					c-0.381-0.78-1.319-1.103-2.095-0.726c-17.696,8.571-36.336,4.179-55.369-13.071c-0.633-0.582-1.635-0.536-2.214,0.108
					c-0.582,0.643-0.532,1.635,0.108,2.214C2663.539,1138.526,2676.779,1144.6,2689.73,1144.6z"/>
			</g>
			<g>
				<path style="fill:#56335B;" d="M2620.748,1140.28c15.78,0,30.806-13.2,31.532-13.847c0.646-0.575,0.704-1.567,0.129-2.214
					c-0.579-0.643-1.567-0.704-2.214-0.13c-0.19,0.173-19.406,17.067-35.869,12.147c-9.232-2.764-16-11.942-20.122-27.277
					c-0.226-0.83-1.075-1.341-1.923-1.103c-0.833,0.223-1.33,1.082-1.107,1.919c4.424,16.459,11.913,26.378,22.267,29.465
					C2615.861,1139.967,2618.315,1140.28,2620.748,1140.28z"/>
			</g>
			<g>
				<path style="fill:#6F4975;" d="M2725.506,1104.464c0,0,2.138,127.75-74.807,135.506
					c-76.946,7.748-65.532-127.391-65.532-127.391s-33.231,4.582-59.606,17.767c0,0-36.843,126.328-42.762,229.9
					c-5.923,103.575,365.542,41.357,365.542,41.357l-2.663-42.223c-2.757-43.739-13.078-86.868-32.236-126.288
					c-12.97-26.68-25.02-65.895-21.368-116.006C2792.073,1117.086,2755.043,1095.182,2725.506,1104.464z"/>
			</g>
			<g>
				<path style="fill:#2F1A31;" d="M2724.464,1651.911c63.275,0,110.767-23.291,111.338-23.578c0.873-0.435,1.229-1.491,0.791-2.365
					c-0.435-0.873-1.506-1.218-2.365-0.787c-0.683,0.341-69.313,33.943-151.204,19.679c-0.941-0.172-1.872,0.467-2.045,1.434
					c-0.165,0.96,0.478,1.872,1.438,2.041C2696.939,1650.862,2711.063,1651.911,2724.464,1651.911z"/>
			</g>
		</g>
		<g>
			<g>
				<path style="fill:#436E8E;" d="M2191.736,1881.895c-74.796,0.408-123.846-24.92-220.22-29.286
					c-37.473-1.701-77.023-3.719-118.971-6.026c-83.764-42.703-194.251-56.755-265.883-61.271
					c-5.649-0.358-11.278-0.666-16.878-0.944c-41.548-2.039-86.677-6.007-128.993-15.296
					c-101.556-22.295-186.902-75.302-167.629-206.106c2.058-14.022,5.33-28.939,9.914-44.82
					c3.321-11.517,7.329-23.541,12.083-36.081c1.781-4.714,3.671-9.497,5.66-14.361c4.823-11.755,10.253-23.957,16.339-36.606
					c0,0,12.66-3.998,38.556-8.443c12.948-2.227,29.217-4.564,48.869-6.563c46.92-4.794,113.133-7.678,199.611-2.625
					c17.006,0.994,37.85,4.116,61.45,9.188c42.235,9.069,93.262,24.414,146.744,45.049c32.38,12.492,65.666,26.931,98.434,43.101
					c25.658,12.65,50.997,26.353,75.351,41.022c66.47,40.018,107.494,83.906,145.562,136.066
					C2166.087,1734.954,2195.736,1823.895,2191.736,1881.895z"/>
			</g>
		</g>
		<g>
			<g>
				<path style="fill:#436E8E;" d="M1971.516,1852.609c-37.473-1.701-77.023-3.719-118.971-6.026
					c-80.184-4.416-387.143-16.355-387.143-16.355c-20.178-0.378-189.057,1.009-316.426-69.44
					c-80.06-44.282-147.963-110.476-141.022-208.094c0.985-13.992,3.312-28.849,7.08-44.643
					c3.053-12.817,7.072-26.254,12.104-40.346c2.237-6.273,4.683-12.689,7.329-19.233c0,0,4.027,1.084,12.292,2.895
					c16.098,3.54,48.252,9.856,97.896,16.338c39.092,5.112,89.025,10.324,150.503,14.361c7.201,0.478,14.56,0.935,22.079,1.373
					c35.323,2.069,69.523,5.31,102.5,9.706c48.689,6.474,94.734,15.484,137.895,26.951c0.01,0.01,0.01,0,0.01,0
					c26.632,7.08,52.151,15.095,76.535,24.046c16.409,6.016,32.31,12.461,47.716,19.333
					c103.864,46.284,184.824,111.62,241.102,194.71C1943.421,1788.336,1959.264,1819.414,1971.516,1852.609z"/>
			</g>
		</g>
		<g>
			<path style="fill:#6F4975;" d="M1085.674,837.482c0,0,170.199-149.832,361.536-106.294
				c91.37,20.792,161.108,85.152,193.466,213.913c35.4,140.875,31.282,351.773,89.534,494.364c0,0-264.887,180.282-684.316,202.234
				c-58,3.035-67.574-46.431-65.913-144.501C983.773,1273.359,996.363,982.394,1085.674,837.482z"/>
		</g>
		<g>
			<path style="fill:#6F4975;" d="M962.384,870.959l196.812,36.994c0,0,382.39,194.374,478.734,195.178
				c96.343,0.805,97.978-162.254,97.978-162.254s-77.703-131.896-240.562-194.125c-15.298-5.871-31.325-11.091-48.129-15.552
				c-28.21-7.463-56.88-14.003-85.578-14.333C1036.766,713.141,962.384,870.959,962.384,870.959z"/>
		</g>
		<g>
			<path style="fill:#2F1A31;" d="M962.384,870.959c-4.258,15.515,36.998,41.404,92.146,57.826
				c55.147,16.422,103.305,17.156,107.563,1.641c4.258-15.515-36.997-41.405-92.145-57.826
				C1014.801,856.178,966.643,855.443,962.384,870.959z"/>
		</g>
		<g>
			<g>
				<path style="fill:#E28569;" d="M1446.424,729.858l-0.058-2.099c0.238-0.006,23.892-0.837,33.44-14.868
					c4.956-7.281,5.314-16.926,1.065-28.669c-1.998-5.521-3.89-10.615-5.56-15.11c-11.742-31.6-16.135-43.424-6.585-65.317
					l1.923,0.84c-9.21,21.117-5.219,31.859,6.63,63.746c1.671,4.501,3.564,9.598,5.566,15.127
					c4.492,12.416,4.053,22.701-1.308,30.572c-4.221,6.197-11.645,10.891-21.469,13.574
					C1452.709,729.662,1446.677,729.852,1446.424,729.858z"/>
			</g>
			<g>
				<path style="fill:#E28569;" d="M1469.687,604.215c0,0-15.175,33.81,0.611,75.768s-17.629,74.06-46.475,53.201
					c-28.845-20.859-45.292,39.068-86.712-16.381C1308.736,678.818,1469.687,604.215,1469.687,604.215z"/>
			</g>
			<g>
				<path style="fill:#F7B686;" d="M1295.377,700.74l32.217-45.991l9.411-13.443l55.355-79.033l-25.124,88.589l-15.087,53.172
					l-4.25,14.979c-3.519,12.401,28.825,37.044,1.247,49.309c-31.571,14.042-89.01-11.514-101.488-45.471
					C1247.658,722.852,1284.966,715.602,1295.377,700.74z"/>
			</g>
			<g>
				<path style="fill:#2F1A31;" d="M1327.809,653.241c-0.088,0.5-0.158,1.002-0.214,1.508
					c-3.868,29.435,24.333,49.408,24.333,49.408l0.222-0.122l15.087-53.172c-8.76-5.439-21.524-11.808-30.231-9.556
					C1332.454,642.484,1329.014,646.011,1327.809,653.241z"/>
			</g>
			<g>
				<path style="fill:#F7B686;" d="M1477.956,595.023c11.936-57.573-16.216-112.087-62.882-121.763
					c-46.665-9.675-94.171,29.152-106.109,86.724c-11.936,57.573,16.216,112.088,62.882,121.764
					C1418.512,691.424,1466.02,652.595,1477.956,595.023z"/>
			</g>
			<g>
				<path style="fill:#F7B686;" d="M1317.006,578.051c7.676,11.123,20.866,14.834,29.457,8.289
					c8.594-6.545,9.337-20.868,1.66-31.991c-7.676-11.123-20.865-14.835-29.457-8.29
					C1310.072,552.604,1309.33,566.926,1317.006,578.051z"/>
			</g>
			<g>
				<g>
					<path style="fill:#060633;" d="M1401.425,580.203c0.595-0.035,1.165-0.34,1.519-0.876c0.598-0.902,0.354-2.116-0.548-2.717
						c-0.532-0.352-12.087-9.687-26.031,0.389c-0.88,0.636-1.115,1.841-0.496,2.732c0.617,0.892,1.726,0.905,2.732,0.496
						c10.056-4.103,21.18-0.634,21.623-0.344C1400.592,580.127,1401.015,580.229,1401.425,580.203z"/>
				</g>
			</g>
			<g>
				<path style="fill:#060633;" d="M1381.839,598.172c-1.097,4.555,0.694,8.89,3.997,9.685c3.304,0.796,6.872-2.25,7.969-6.804
					c1.097-4.555-0.694-8.891-3.999-9.686C1386.502,590.571,1382.935,593.618,1381.839,598.172z"/>
			</g>
			<g>
				<g>
					<path style="fill:#060633;" d="M1467.95,604.446c0.564,0.192,1.207,0.127,1.738-0.231c0.896-0.608,1.133-1.823,0.529-2.72
						c-0.357-0.53-7.487-13.563-24.216-9.558c-1.055,0.253-1.732,1.278-1.5,2.339c0.233,1.058,1.251,1.495,2.337,1.498
						c10.861,0.038,19.824,7.482,20.124,7.919C1467.21,604.059,1467.561,604.313,1467.95,604.446z"/>
				</g>
			</g>
			<g>
				<path style="fill:#060633;" d="M1442.995,613.6c-2.748,3.793-2.745,8.484,0.007,10.479c2.752,1.993,7.212,0.535,9.96-3.259
					c2.748-3.793,2.744-8.484-0.007-10.478C1450.203,608.347,1445.745,609.806,1442.995,613.6z"/>
			</g>
			<g>
				<path style="fill:#E28569;" d="M1447.036,499.594c0,0-9.322,35.791-55.768,32.592c-46.447-3.197-81.561,9.453-82.241,43.25
					c-0.681,33.798,57.679,140.708-1.254,155.76c-58.93,15.053-36.981-55.651-97.338-56.374
					c-60.355-0.725-83.988-70.606-5.491-117.035c52.862-31.266,57.753-158.994,206.448-122.663s69.039,144.46,69.039,144.46
					S1438.665,539.518,1447.036,499.594z"/>
			</g>
			<g>
				<path style="fill:#FFFFFF;" d="M1298.068,733.627l-0.223-1.224c10.325-1.871,17.587-6.745,21.582-14.485
					c14.162-27.432-13.759-86.989-34.146-130.476c-3.918-8.356-7.617-16.248-10.751-23.32c-10.89-24.575-6.951-50.385,10.28-67.357
					c19.141-18.853,48.822-22.356,77.458-9.142c15.269,7.045,38.387,13.982,61.807,7.005c14.005-4.172,21.577-11.457,21.652-11.53
					l0.871,0.891c-0.313,0.306-7.822,7.543-22.098,11.812c-13.142,3.932-34.7,5.9-62.754-7.047
					c-28.156-12.99-57.301-9.58-76.063,8.899c-17.11,16.851-20.854,41.51-10.017,65.965c3.128,7.059,6.825,14.946,10.74,23.296
					c20.497,43.721,48.569,103.599,34.126,131.575C1316.351,726.591,1308.793,731.683,1298.068,733.627z"/>
			</g>
			<g>
				<g>
					<path style="fill:#6F4975;" d="M1426.555,625.458c0.507-0.252,1.021-0.544,1.529-0.795c0.688-8.457,2.799-17.345,6.266-26.002
						c-0.347-0.439-1.247-1.353-2.625-2.434C1428.336,605.91,1426.657,615.971,1426.555,625.458z M1425.306,616.711
						c-0.576,3.365-0.939,6.724-1.125,10.029c-0.856,15.862,2.998,30.122,11.566,38.303c0.076,0.054,0.109,0.103,0.185,0.158
						c3.531,3.306,7.56,5.433,11.963,6.355c3.023,0.602,6.13,0.711,9.383,0.211c3.164-0.472,6.33-1.451,9.499-2.937
						c2.612-1.199,5.239-2.735,7.802-4.62c7.565-5.463,14.623-13.633,20.279-23.731c16.132-28.622,16.333-64.109,0.493-79.152
						c-1.017-0.977-2.086-1.877-3.186-2.616c-3.692-2.615-7.84-4.044-12.267-4.337c-1.963-0.124-4.003-0.051-6.037,0.235
						c-2.343,0.36-4.687,0.972-7.038,1.879c-1.267,0.501-2.551,1.085-3.847,1.749c-9.941,5.016-19.46,14.748-26.729,27.611
						c-0.601,1.038-1.16,2.083-1.678,3.135c-0.054,0.074-0.076,0.198-0.138,0.315c0,0,0,0-0.04-0.008
						c-1.091,2.179-2.107,4.413-3.04,6.661C1428.493,602.769,1426.485,609.818,1425.306,616.711z M1495.205,631.289
						c-1.1,2.473-2.362,4.918-3.7,7.308c-5.166,9.211-11.516,16.697-18.267,21.836c-2.431,1.865-4.886,3.388-7.376,4.61
						c-3.046,1.505-6.129,2.499-9.164,2.951c-6.739,0.874-12.864-0.849-17.772-5.237c-0.191-0.117-0.333-0.268-0.518-0.427
						c-8.241-7.872-11.691-22.019-10.324-37.668c0.688-8.457,2.799-17.345,6.266-26.002c0.947-2.329,1.976-4.645,3.17-6.933
						c0.651-1.326,1.333-2.603,2.065-3.914c7.002-12.529,16.151-21.818,25.595-26.411c3.087-1.499,6.17-2.492,9.253-2.979
						c2.034-0.287,3.943-0.339,5.804-0.105c1.047,0.052,2.032,0.221,3.002,0.471c0.041,0.007,0.041,0.007,0.082,0.014
						c2.592,0.655,4.975,1.781,7.186,3.426c0.751,0.55,1.486,1.182,2.216,1.857c13.333,12.672,14.065,41.476,2.559,67.004
						C1495.267,631.174,1495.26,631.215,1495.205,631.289z"/>
				</g>
			</g>
			<g style="opacity:0.3;">
				<path style="fill:#FFFFFF;" d="M1342.63,545.713c-12.95,28.36-8.741,62.564,9.402,76.398
					c18.142,13.833,43.348,2.059,56.299-26.3c12.951-28.359,8.742-62.563-9.401-76.396
					C1380.787,505.58,1355.58,517.353,1342.63,545.713z"/>
			</g>
			<g style="opacity:0.3;">
				<path style="fill:#FFFFFF;" d="M1434.931,588.205c-12.997,28.491-10.67,62.791,5.198,76.611
					c15.867,13.82,39.266,1.925,52.262-26.566c12.998-28.492,10.669-62.792-5.198-76.611
					C1471.326,547.819,1447.928,559.713,1434.931,588.205z"/>
			</g>
			<g>
				<g>
					<path style="fill:#6F4975;" d="M1334.989,562.484c-1.58,9.234-1.639,18.473-0.308,26.98
						c2.141,13.165,7.649,24.666,16.248,31.923c0.546,0.516,1.138,0.998,1.74,1.438c3.956,3.042,8.307,5.012,12.833,5.955
						c2.531,0.517,5.159,0.714,7.849,0.54c2.17-0.093,4.423-0.426,6.712-0.963c14.307-3.635,27.158-15.797,35.289-33.455
						c0.74-1.604,1.446-3.259,2.069-4.925c0.899-2.296,1.676-4.612,2.37-6.943c5.549-18.859,4.446-38.815-2.547-53.74
						c-3.071-6.734-7.421-12.419-12.844-16.516c-8.091-6.03-17.522-7.939-27.49-5.463c-12.889,3.243-24.616,13.528-32.701,28.448
						c-0.864,1.584-1.697,3.258-2.492,4.938c-0.814,1.802-1.59,3.613-2.234,5.404
						C1337.418,551.496,1335.93,556.987,1334.989,562.484z M1390.923,619.192c-3.777,2.565-7.767,4.416-11.831,5.451
						c-1.541,0.372-3.103,0.61-4.601,0.734c-7.032,0.614-13.717-1.291-19.53-5.579c-0.634-0.489-1.269-0.979-1.854-1.501
						c-7.653-6.631-12.596-16.979-14.544-28.801c-2.196-12.837-0.922-27.444,4.126-41.151c0.728-2.03,1.578-4.039,2.463-6
						c1.279-2.78,2.693-5.368,4.216-7.853c1.062-1.761,2.198-3.467,3.437-5.029c0.007-0.04,0.014-0.082,0.062-0.116
						c2.038-2.777,4.287-5.306,6.61-7.528c5.608-5.375,11.915-9.154,18.403-10.79c4.42-1.144,8.787-1.242,12.945-0.361
						c4,0.811,7.799,2.558,11.284,5.141c4.823,3.655,8.697,8.668,11.484,14.593c6.865,14.185,7.932,33.627,2.418,52.028
						c-0.702,2.371-1.519,4.682-2.459,6.971c-0.479,1.312-1.039,2.61-1.641,3.901c-5.097,11.038-12.417,20.008-20.601,25.619
						C1391.205,619.028,1391.059,619.131,1390.923,619.192z"/>
				</g>
			</g>
			<g>
				<g>
					<path style="fill:#6F4975;" d="M1436.605,600.17c-0.787-0.164-1.519-0.598-2.058-1.276l0,0
						c-0.312-0.405-7.939-9.411-24.263-9.679c-1.904-0.111-3.569-1.647-3.555-3.627c0.014-1.981,1.646-3.57,3.617-3.502
						c19.788-0.035,29.374,11.815,29.811,12.303c1.209,1.554,0.964,3.827-0.589,5.035
						C1438.707,600.153,1437.611,600.379,1436.605,600.17z"/>
				</g>
			</g>
			<g>
				<path style="fill:#2F1A31;" d="M1400.809,659.203c-5.883,0-12.036-1.781-18.16-5.3c-6.716-3.856-11.043-8.428-11.223-8.62
					c-1.067-1.136-1.009-2.92,0.126-3.986c1.134-1.066,2.917-1.01,3.983,0.123l0,0c0.155,0.164,15.603,16.287,31.956,11.128
					c1.485-0.467,3.07,0.355,3.538,1.841c0.467,1.485-0.356,3.069-1.842,3.538C1406.483,658.779,1403.678,659.203,1400.809,659.203z
					"/>
			</g>
		</g>
		<g>
			<path style="fill:#2F1A31;" d="M2940.313,1518.672l-1.75-44.74l-0.009-0.248l-0.231-5.979l-0.314-8.055l-56.821-29.257
				l3.241,37.312l1.234,14.211l3.874,44.504l28.25,328.611c11.869-0.858,23.661-1.79,35.394-2.803L2940.313,1518.672z"/>
			<g>
				<g>
					<path style="fill:#2F1A31;" d="M825.977,1430.393l-3.242,37.312l-1.454,16.728v0.01l-3.882,44.544l-25.508,293.381
						l-1.56,37.579c-12.27,0.317-24.303,0.636-36.066,0.914l1.998-70.724l10.465-268.321l1.75-44.771l0.363-9.339l0.315-8.054
						L825.977,1430.393z"/>
				</g>
			</g>
			<g>
				<ellipse style="fill:#74A1BD;" cx="1825.47" cy="1467.703" rx="1215.974" ry="97.669"/>
			</g>
			<g>
				<rect x="609.497" y="1422.661" style="fill:#74A1BD;" width="2431.948" height="45.042"/>
			</g>
			<g>
				<ellipse style="fill:#BED5DC;" cx="1825.47" cy="1422.661" rx="1215.974" ry="97.669"/>
			</g>
			<g>
				<path style="fill:#42428E;" d="M876.272,1493.876c-0.1,0-0.199-0.006-0.301-0.017c-79.005-8.423-142.143-18.135-187.661-28.866
					c-1.572-0.372-2.558-1.997-2.202-3.631c0.357-1.636,1.925-2.657,3.492-2.288c45.29,10.677,108.195,20.349,186.967,28.749
					c1.604,0.171,2.771,1.66,2.605,3.328C879.018,1492.713,877.75,1493.876,876.272,1493.876z"/>
			</g>
			<g>
				<path style="fill:#42428E;" d="M2835.229,1480.129c-1.827,0-3.434-1.069-3.727-2.566c-0.323-1.655,1.086-3.208,3.147-3.468
					c1.186-0.15,119.135-15.103,163.428-28.723c1.953-0.6,4.133,0.185,4.878,1.749c0.747,1.566-0.229,3.32-2.177,3.919
					c-45.037,13.848-160.083,28.436-164.959,29.051C2835.622,1480.117,2835.424,1480.129,2835.229,1480.129z"/>
			</g>
		</g>
		<g>
			<g>
				<path style="fill:#436E8E;" d="M2397.787,1342.782c0,0,4.551-29.388,36.026-33.665
					C2433.813,1309.117,2435.784,1347.88,2397.787,1342.782z"/>
			</g>
			<g>
				<path style="fill:#2F1A31;" d="M2414.265,1359.999c-0.854,0.638-2.05,0.707-2.993,0.088
					c-0.688-0.453-16.939-11.307-22.255-29.877c-0.398-1.385,0.4-2.829,1.789-3.224c1.384-0.398,2.828,0.405,3.224,1.789
					c4.789,16.728,19.955,26.852,20.108,26.952c1.201,0.792,1.538,2.408,0.748,3.612
					C2414.713,1359.602,2414.502,1359.824,2414.265,1359.999z"/>
			</g>
			<g>
				<path style="fill:#E28569;" d="M2449.64,1336.188c5.683,2.258,10.808,6.516,14.371,11.03
					c12.859,16.287,16.838,41.964,9.13,61.252c-8.198,20.514-33.547,32.444-54.697,29.25c-19.995-3.018-37.464-18.809-42.478-38.401
					c-4.269-16.672,1.885-33.323,18.96-39.102c5.96-2.017,13.055-1.73,18.115-6.001c7.852-6.626,14.284-17.552,25.172-19.439
					C2442.077,1334.106,2445.975,1334.732,2449.64,1336.188z"/>
			</g>
		</g>
		<g>
			<g>
				<path style="fill:#2F1A31;" d="M1725.463,1068.843c0,0-1.228,4.552-2.842,4.395c-2.605-0.253-2.879-4.371-2.879-4.371
					L1725.463,1068.843z"/>
			</g>
			<g>
				<g>
					<path style="fill:#E28569;" d="M1742.213,865.752c-0.067,0-0.132-0.002-0.2-0.006c-1.808-0.107-3.185-1.661-3.077-3.469
						l5.399-90.298c-0.148-0.278-0.971-1.008-2.714-1.354l-17.019-2.302c-1.795-0.244-3.053-1.895-2.81-3.69
						c0.243-1.795,1.892-3.056,3.69-2.81l17.111,2.314c0.056,0.007,0.113,0.017,0.17,0.028c5.091,0.964,8.355,4.232,8.123,8.134
						l-5.403,90.369C1745.379,864.411,1743.935,865.752,1742.213,865.752z"/>
				</g>
			</g>
			<g>
				<path style="fill:#2F1A31;" d="M1700.17,1042.977l1.975-287.297c0.035-2.739,3.661-4.959,8.132-4.978l11.011-0.047
					c4.438-0.018,8.07,2.142,8.172,4.86l10.08,286.781L1700.17,1042.977z"/>
			</g>
			<g>
				<g>
					<path style="fill:#E28569;" d="M1722.187,750.653l-1.989-17.926c-0.166-1.491-2.192-2.642-4.632-2.633l-2.047,0.008
						c-2.557,0.011-4.626,1.29-4.618,2.857l0.074,17.748L1722.187,750.653z"/>
				</g>
			</g>
			<g>
				<g>
					<path style="fill:#E28569;" d="M1730.98,796.435c0,0-12.072-2.848-29.344,0.124l-0.227,18.302c0,0,16.088-4.807,30.251-0.127
						L1730.98,796.435z"/>
				</g>
			</g>
		</g>
		<g>
			<g>
				<path style="fill:#F7B686;" d="M1811.665,952.423c0,0,12.244,38.82-17.59,46.949c-44.444,12.11-99.986,39.146-101.769,14.211
					c-0.626-8.767,55.028-38.742,55.028-38.742s-76.873,38.343-80.497,16.402c-3.039-18.39,69.073-50.367,69.073-50.367
					s-59.214,21.531-64.049,0.52c-5.118-22.244,62.266-39.926,62.266-39.926s-59.705,20.306-59.223-4.696
					c0.497-25.856,48.998-25.191,69.288-31.492c19.175-5.953,30.058,5.1,35.728,24.939c0,0,16.64,17.231,17.21,30.909
					c0.219,5.244,6.252,8.648,7.92,12.042C1808.239,939.671,1811.665,952.423,1811.665,952.423z"/>
			</g>
		</g>
		<g>
			<g>
				<path style="fill:#E28569;" d="M1368.981,1022.586l34.724,359.48c1.359,14.07,12.562,25.17,26.645,26.398l267.668,23.339
					c2.722,0.237,5.464,0.092,8.146-0.429l53.124-10.329c5.614-1.091,10.786-3.801,14.88-7.793l124.001-120.941
					c6.298-6.143,9.506-14.788,8.738-23.553L1882.4,988.658c-1.987-22.713-27.995-34.571-46.446-21.178l-107.468,78.013
					c-2.934,2.131-6.239,3.698-9.744,4.624l-53.687,14.17c-5.212,1.375-10.703,1.287-15.867-0.254l-242.631-72.372
					C1386.605,985.711,1366.981,1001.862,1368.981,1022.586z"/>
			</g>
			<g>
				<path style="fill:#BC614B;" d="M1657.086,1066.389l66.959-17.673l43.848,370.654c0,0-16.442,25.578-65.771,12.79
					L1657.086,1066.389z"/>
			</g>
			<g>
				<g>
					<path style="fill:#FFFFFF;" d="M1424.354,996.969c0,0,20.784-14.478,68.742-4.886c47.96,9.593,119.213,30.832,147.988,34.256
						c28.776,3.427,39.738,16.443,39.738,16.443s-8.527-22.124,25.539-34.014c34.066-11.889,96.42-47.423,117.364-32.411
						l-99.678,72.359l-66.959,17.673L1424.354,996.969z"/>
				</g>
			</g>
			<g>
				<g>
					<path style="fill:#FFFFFF;" d="M1678.122,1043.254c-0.026-0.133-3.138-13.358-40.739-21.015
						c-9.187-1.871-21.707-5.252-36.204-9.166c-48.848-13.191-122.67-33.123-158.006-18.012l-2.155-5.04
						c37.083-15.856,112.009,4.373,161.59,17.761c14.406,3.891,26.85,7.25,35.868,9.086c41.385,8.427,44.802,23.792,45.055,25.517
						l-5.422,0.798l2.711-0.4L1678.122,1043.254z"/>
				</g>
			</g>
		</g>
		<g>
			<g>
				<g>
					<path style="fill:#F7B686;" d="M1363.901,1417.164l1.9-116.145c0.259-15.87-11.952-29.176-27.784-30.31
						c-80.513-5.76-136.874-30.731-167.751-74.397c-42.873-60.631-38.349-154.806-26.404-220.117
						c6.113-33.422-4.918-55.776-45.289-77.197c0,0-34.737-19.109-77.56-26.401c-17.157-2.922-34.187,3.972-38.612,20.803
						c-6.927,26.342-15.894,67.321-20.174,115.542c-10.158,114.529,11.932,214.154,63.885,288.104
						c63.765,90.763,166.555,140.981,305.826,149.513C1349.035,1447.606,1363.621,1434.293,1363.901,1417.164z"/>
				</g>
			</g>
			<g style="opacity:0.5;">
				<path style="fill:#E08B65;" d="M1067.892,1266.699c-11.408,0.001-24.528-6.73-34.191-18.73l0,0
					c-6.783-8.422-10.931-18.199-11.684-27.529c-0.796-9.886,2.267-18.149,8.626-23.268c6.357-5.121,15.081-6.353,24.571-3.466
					c8.956,2.723,17.624,8.861,24.408,17.284c14.345,17.815,15.718,40.604,3.058,50.798
					C1078.547,1265.118,1073.421,1266.698,1067.892,1266.699z M1045.537,1199.978c-3.895,0-7.324,1.098-10.01,3.261
					c-4.287,3.453-6.328,9.34-5.747,16.576c0.629,7.789,4.174,16.053,9.986,23.271l0,0c11.456,14.224,28.87,20.012,38.028,12.637
					c9.156-7.375,7.215-25.622-4.241-39.847c-5.813-7.217-13.131-12.444-20.608-14.718
					C1050.351,1200.369,1047.861,1199.978,1045.537,1199.978z"/>
			</g>
			<g>
				<g>
					<g>
						<path style="fill:#F7B686;" d="M1308.453,1263.343c0,0,28.274-85.577,76.691-106.531
							c48.416-20.953,126.104-11.114,98.849,8.248c-27.252,19.363-68.911,34.481-68.911,34.481s90.52-28.116,87.927-4.098
							c-2.592,24.016-81.554,47.712-81.554,47.712s110.379-24.875,100.584-2.979c-9.795,21.894-93.781,40.197-93.781,40.197
							s103.622-19.04,91.647,6.127c-11.974,25.166-85.733,15.179-88.326,39.195c-2.592,24.018-21.013,118.539-88.653,119.485
							L1308.453,1263.343z"/>
					</g>
				</g>
				<g>
					<path style="fill:#DD8964;" d="M1382.81,1219.428l-3.518-1.672c7.448-15.671,34.352-19.966,35.493-20.141l0.591,3.85
						C1415.118,1201.505,1389.373,1205.623,1382.81,1219.428z"/>
				</g>
				<g>
					<path style="fill:#DD8964;" d="M1382.38,1267.07l-3.119-2.332c14.691-19.649,40.828-23.365,41.934-23.514l0.519,3.859
						C1421.461,1245.118,1396.077,1248.754,1382.38,1267.07z"/>
				</g>
				<g>
					<path style="fill:#DD8964;" d="M1391.918,1302.422l-3.645-1.368c6.527-17.379,38.343-22.401,39.693-22.606l0.585,3.849
						C1428.243,1282.343,1397.645,1287.178,1391.918,1302.422z"/>
				</g>
			</g>
		</g>
		<g>
			<path style="fill:#2F1A31;" d="M1907.993,1849.69l-1.945-0.415c0.049-0.233,4.951-23.758,3.561-56.198
				c-1.281-29.9-8.323-73.713-34.599-112.637c-45.552-67.48-148.758-94.488-149.795-94.753l0.493-1.928
				c0.261,0.068,26.481,6.847,58.011,21.932c52.778,25.252,79.673,53.982,92.94,73.635c26.548,39.329,33.653,83.551,34.94,113.724
				C1912.993,1825.728,1908.043,1849.453,1907.993,1849.69z"/>
		</g>
		<g>
			<g>
				<g>
					<path style="fill:#F7B686;" d="M2542.37,1373.601c0,0-69.079-38.204-93.407-31.974c-24.327,6.231-50.693,32.582-34.792,31.922
						c15.9-0.659,35.984-7.115,35.984-7.115s-42.26,15.81-34.281,24.092c7.977,8.281,44.598-5.822,44.598-5.822
						s-48.788,22.819-38.718,28.203c10.069,5.383,47.008-12.214,47.008-12.214s-44.543,23.045-32.7,29.024
						c11.842,5.979,36.687-19.282,44.664-11.001c7.978,8.282,42.465,38.48,68.194,19.117L2542.37,1373.601z"/>
				</g>
			</g>
			<g>
				<path style="fill:#DD8964;" d="M2468.095,1364.51l0.836-1.655c-7.372-3.725-18.748,2.501-19.228,2.768l0.9,1.621
					C2450.713,1367.184,2461.601,1361.228,2468.095,1364.51z"/>
			</g>
			<g>
				<path style="fill:#DD8964;" d="M2482.146,1382.312l0.493-1.787c-11.257-3.111-22.175,3.11-22.635,3.377l0.93,1.604
					C2461.041,1385.445,2471.653,1379.412,2482.146,1382.312z"/>
			</g>
			<g>
				<path style="fill:#DD8964;" d="M2488.864,1398.395l0.973-1.578c-7.523-4.637-20.959,2.749-21.527,3.065l0.902,1.619
					C2469.341,1401.43,2482.265,1394.329,2488.864,1398.395z"/>
			</g>
		</g>
		<g>
			<g>
				<path style="fill:#FFFFFF;" d="M2535.612,1460.285c91.472,23.61,243.342,24.492,308.264-40.496
					c84.255-84.34,54.949-185.838,54.058-192.849l-100.995-41.235c0.136,1.157,8.386,108.347-39.082,139.286
					c-44.366,28.918-109.096,33.904-208.94,30.385c0,0-15.182,20.57-17.46,36.059
					C2524.403,1439.395,2535.612,1460.285,2535.612,1460.285z"/>
			</g>
		</g>
		<g>
			<g>
				<g>
					<path style="fill:#436E8E;" d="M1122.376,1236.984l-170.058-5.865l-192.744,4.801l-0.5,14.513l186.434-8.1
						c18.736,0.645,33.351,17.807,32.642,38.333l0,0c-0.708,20.524-16.468,36.638-35.204,35.992l-185.934-6.411l-0.37,10.719
						l362.407,12.498c24.323,0.839,44.783-20.079,45.701-46.721l0,0C1165.667,1260.1,1146.698,1237.823,1122.376,1236.984z"/>
				</g>
				<g>
					<path style="fill:#436E8E;" d="M994.69,1280.878L994.69,1280.878c0.92-26.642-18.052-48.92-42.372-49.759l-192.744,4.801
						l-0.5,14.513l186.434-8.1c18.736,0.645,33.351,17.807,32.642,38.333l0,0c-0.708,20.524-16.468,36.638-35.204,35.992
						l-185.934-6.411l-0.37,10.719l192.35,6.634C973.311,1328.438,993.771,1307.52,994.69,1280.878z"/>
				</g>
				<g>
					<path style="fill:#E6EDFF;" d="M945.507,1242.371l-186.433,8.062l0,0c16.817,2.711,21.88,19.804,24.203,28.924
						c4.712,18.494-9.292,29.13-26.258,30.676l-0.008,0.253l185.933,6.413c18.736,0.645,34.499-15.47,35.207-35.993l0,0
						C978.858,1260.18,964.242,1243.019,945.507,1242.371z"/>
				</g>
				<g>
					
						<rect x="858.514" y="1215.855" transform="matrix(0.0345 -0.9994 0.9994 0.0345 -460.7544 2104.959)" style="fill:#2F1A31;" width="1.015" height="150.165"/>
				</g>
				<g>
					<g>
						<path style="fill:#2F1A31;" d="M976.605,1317.412c-0.654,0-1.296-0.276-1.688-0.785c-0.62-0.806-0.367-1.898,0.56-2.438
							c0.15-0.085,14.811-8.885,17.193-33.521c2.365-24.476-17.41-33.887-17.609-33.978c-0.991-0.456-1.366-1.521-0.842-2.38
							c0.53-0.862,1.756-1.178,2.743-0.728c0.914,0.422,22.337,10.617,19.751,37.38c-2.561,26.462-18.323,35.777-18.994,36.16
							C977.375,1317.32,976.988,1317.414,976.605,1317.412z"/>
					</g>
				</g>
				<g>
					
						<rect x="783.272" y="1277.953" transform="matrix(0.9999 -0.0154 0.0154 0.9999 -19.5668 13.087)" style="fill:#2F1A31;" width="115.305" height="1.015"/>
				</g>
				<g>
					<g>
						<path style="fill:#2F1A31;" d="M1036.596,1313.093c-0.021,0-0.044-0.003-0.068-0.003l-36.348-1.252
							c-0.712-0.026-1.361-0.423-1.706-1.048c-0.345-0.627-0.335-1.387,0.024-2.002c0.065-0.108,6.35-10.963,10.014-25.566
							c3.529-14.056-6.04-28.697-6.135-28.846c-0.421-0.632-0.453-1.447-0.081-2.109c0.37-0.664,1.009-1.001,1.84-1.038
							l34.486,1.188c0.635,0.023,1.228,0.342,1.592,0.866c21.544,30.861-1.836,58.82-2.075,59.1
							C1037.754,1312.834,1037.187,1313.093,1036.596,1313.093z M1003.581,1307.896l32.075,1.104
							c3.415-4.413,18.972-27.011,1.802-52.564l-29.807-1.028c2.885,5.504,7.73,17.118,4.798,28.801
							C1009.75,1294.961,1005.774,1303.603,1003.581,1307.896z"/>
					</g>
				</g>
			</g>
			<g>
				<g>
					<path style="fill:#E28569;" d="M760.902,1321.94l170.159,0.181l192.45,11.647l-0.014,14.522l-186.028-14.72
						c-18.747-0.02-33.962,16.612-33.985,37.15l0,0c-0.022,20.536,15.158,37.201,33.905,37.221l186.042,0.198l-0.01,10.726
						l-362.622-0.387c-24.337-0.026-44.039-21.657-44.011-48.315l0,0C716.816,1343.502,736.567,1321.914,760.902,1321.94z"/>
				</g>
				<g>
					<path style="fill:#E28569;" d="M886.947,1370.341L886.947,1370.341c0.029-26.657,19.78-48.246,44.115-48.221l192.45,11.647
						l-0.014,14.522l-186.028-14.72c-18.747-0.02-33.962,16.612-33.985,37.15l0,0c-0.022,20.537,15.158,37.201,33.905,37.221
						l186.042,0.198l-0.01,10.726l-192.462-0.206C906.624,1418.633,886.92,1397.001,886.947,1370.341z"/>
				</g>
				<g>
					<path style="fill:#E6EDFF;" d="M937.469,1333.607l186.028,14.681l0,0c-16.904,2.11-22.569,19.013-25.215,28.045
						c-5.366,18.314,8.251,29.442,25.151,31.589l-0.001,0.253l-186.042-0.198c-18.747-0.018-33.927-16.683-33.905-37.221l0,0
						C903.506,1350.221,918.722,1333.589,937.469,1333.607z"/>
				</g>
				<g>
					<path style="fill:#2F1A31;" d="M903.598,1413.161c-0.406,0-0.817-0.122-1.174-0.376c-0.652-0.467-16.026-11.763-17.504-42.345
						c-1.495-30.932,20.333-41.917,21.263-42.369c1.008-0.491,2.223-0.073,2.713,0.936c0.49,1.008,0.07,2.222-0.934,2.713
						c-0.856,0.422-20.349,10.372-18.988,38.524c0.719,14.901,4.986,24.78,8.436,30.442c3.731,6.119,7.34,8.771,7.375,8.798
						c0.904,0.655,1.114,1.921,0.463,2.83C904.851,1412.867,904.23,1413.161,903.598,1413.161z"/>
				</g>
				<g>
					<path style="fill:#2F1A31;" d="M861.508,1401.068c-0.006,0-0.011,0-0.011,0l-10.4-0.01c-5.621-0.007-10.67-3.112-13.177-8.103
						c-4.402-8.757-10.228-26.272,0.219-45.204c2.522-4.569,7.431-7.404,12.813-7.404c0.007,0,0.011,0,0.017,0l8.204,0.009
						c4.58,0.004,8.825,2.075,11.648,5.682c2.798,3.573,3.781,8.143,2.699,12.538c-1.2,4.873-1.357,9.455-0.467,13.617
						c0.682,3.203,1.549,6.48,2.575,9.741c1.417,4.506,0.622,9.277-2.18,13.092C870.626,1398.866,866.273,1401.068,861.508,1401.068
						z M850.951,1344.405c-3.905,0-7.451,2.034-9.258,5.307c-9.55,17.302-4.191,33.376-0.148,41.418
						c1.816,3.614,5.479,5.863,9.556,5.869l10.396,0.01h0.008c3.463,0,6.621-1.598,8.67-4.388c2.028-2.76,2.605-6.214,1.579-9.47
						c-1.063-3.382-1.962-6.784-2.673-10.111c-1.018-4.768-0.852-9.962,0.497-15.436c0.782-3.174,0.07-6.48-1.955-9.066
						c-2.049-2.616-5.131-4.121-8.455-4.124l-8.204-0.009H850.951z"/>
				</g>
			</g>
		</g>
	</g>
</g>
</svg>
